<svg xmlns="http://www.w3.org/2000/svg" width="33" height="33">
    <defs>
        <filter id="2h3w08ze6a">
            <feFlood flood-color="#48689A" flood-opacity="1" result="floodOut"/>
            <feComposite operator="atop" in="floodOut" in2="SourceGraphic" result="compOut"/>
            <feBlend in="compOut" in2="SourceGraphic"/>
        </filter>
    </defs>
    <g filter="url(#2h3w08ze6a)">
        <path fill-rule="evenodd" fill="#4DFFBA" d="M26.977 25.952h-1v-12h1c3.421 0 6 2.579 6 6s-2.579 6-6 6zm1-9.89v7.78c1.786-.41 3-1.921 3-3.89s-1.214-3.479-3-3.89zm-11-13.11c-4.963 0-9 4.04-9 9.006h-2c0-6.068 4.935-11.006 11-11.006 6.066 0 11 4.938 11 11.006h-2c0-4.966-4.037-9.006-9-9.006zm-9 11v12h-1c-3.421 0-6-2.579-6-6s2.579-6 6-6h1zm-2 2.11c-1.786.411-3 1.921-3 3.89s1.214 3.48 3 3.89v-7.78zm14.939 10.899c1.654 0 3 1.345 3 3 0 1.654-1.346 3-3 3-1.655 0-3-1.346-3-3 0-1.655 1.345-3 3-3zm0 4a1.001 1.001 0 0 0 0-2 1 1 0 0 0 0 2zm8.061-3.009h2c0 1.711-1.29 3-3 3h-4v-2h4c.498 0 1-.31 1-1z"/>
    </g>
</svg>
